<svg xmlns="http://www.w3.org/2000/svg" width="77.906" height="70.083" viewBox="0 0 77.906 70.083"><defs><style>.a{fill:#ff4a57;}</style></defs><path class="a" d="M10.157.433C6.759,2.451.064,10.142,0,12.16V15.5c0,4.232,3.956,7.952,7.548,7.952a7.946,7.946,0,0,0,7.907-7.817,7.839,7.839,0,0,0,7.784,7.817,7.744,7.744,0,0,0,7.672-7.817,8.031,8.031,0,0,0,8,7.817h.078a8.031,8.031,0,0,0,8-7.817,7.744,7.744,0,0,0,7.672,7.817,7.839,7.839,0,0,0,7.784-7.817,7.946,7.946,0,0,0,7.907,7.817c3.592,0,7.548-3.719,7.548-7.952V12.16C77.842,10.142,71.147,2.45,67.749.433,57.187.062,49.865,0,38.952,0s-25.79.171-28.8.433Zm20.7,21.024a8.9,8.9,0,0,1-1.518,1.954,9.049,9.049,0,0,1-12.654,0A8.456,8.456,0,0,1,15.236,21.5h0a8.948,8.948,0,0,1-1.573,1.917,9.049,9.049,0,0,1-6.333,2.578,2.73,2.73,0,0,1-.855-.168c-.347,3.611-.493,7.061-.545,9.577v.014c-.006,1.278-.013,2.328-.019,3.788.067,7.576-.75,24.554,3.34,28.725,6.339,1.478,18,2.151,29.7,2.155h0c11.7,0,23.365-.677,29.7-2.155,4.09-4.172,3.273-21.15,3.34-28.726-.007-1.459-.013-2.51-.019-3.788V35.4c-.051-2.517-.2-5.967-.545-9.577a2.728,2.728,0,0,1-.855.168,9.049,9.049,0,0,1-6.333-2.578A8.951,8.951,0,0,1,62.672,21.5h0a8.458,8.458,0,0,1-1.449,1.915,9.049,9.049,0,0,1-12.653,0,8.9,8.9,0,0,1-1.518-1.954,8.887,8.887,0,0,1-1.5,1.954,9.046,9.046,0,0,1-6.334,2.579c-.086,0-.171,0-.257-.006h0c-.086,0-.171.006-.258.006a9.046,9.046,0,0,1-6.334-2.579,8.887,8.887,0,0,1-1.5-1.954Zm-6.5,8.411v0h0c2.576.005,4.864,0,7.7,3.094a65.633,65.633,0,0,1,6.9-.347h0a65.729,65.729,0,0,1,6.9.347c2.835-3.095,5.123-3.089,7.7-3.094h0v0c1.217,0,6.085,0,9.477,9.527l3.644,13.07c2.7,9.723-.865,9.961-5.311,9.97-6.594-.245-10.245-5.034-10.245-9.822a77.419,77.419,0,0,1-12.166.9h0a77.376,77.376,0,0,1-12.166-.9c0,4.788-3.651,9.576-10.245,9.822-4.446-.009-8.011-.246-5.311-9.97L14.875,39.4c3.392-9.527,8.26-9.527,9.477-9.527Zm14.6,7.487v0c-.006.006-6.942,6.375-8.188,8.641l4.542-.182v3.96c0,.185,1.822.11,3.647.025h0c1.824.084,3.646.16,3.646-.025v-3.96L47.142,46c-1.247-2.265-8.188-8.641-8.188-8.641v0h0Z"/></svg>